<svg preserveAspectRatio="none" width="244" height="244" viewBox="0 0 244 244" fill="none" xmlns="http://www.w3.org/2000/svg">
<path fill-rule="evenodd" clip-rule="evenodd" d="M122.007 20.5255C66.2022 20.5255 20.9727 65.755 20.9727 121.56C20.9727 166.192 49.9135 204.067 90.0679 217.438C95.1227 218.35 96.946 215.24 96.946 212.566C96.946 210.165 96.865 203.804 96.8346 195.386C68.7245 201.484 62.7884 181.832 62.7884 181.832C58.2098 170.163 51.5748 167.053 51.5748 167.053C42.4073 160.782 52.2737 160.924 52.2737 160.924C62.4237 161.633 67.7419 171.338 67.7419 171.338C76.7574 186.775 91.405 182.318 97.1385 179.735C98.0603 173.201 100.694 168.744 103.571 166.222C81.1436 163.679 57.5615 155.008 57.5615 116.282C57.5615 105.271 61.5019 96.2355 67.9343 89.1851C66.9112 86.6223 63.4165 76.3406 68.9372 62.4425C68.9372 62.4425 77.4158 59.7176 96.713 72.785C104.955 70.543 113.456 69.3986 121.997 69.3814C130.538 69.3953 139.04 70.5398 147.281 72.785C166.588 59.7075 175.057 62.4425 175.057 62.4425C180.577 76.3406 177.113 86.6223 176.06 89.1851C182.543 96.2355 186.432 105.261 186.432 116.282C186.432 155.11 162.83 163.639 140.322 166.141C143.918 169.261 147.159 175.42 147.159 184.841C147.159 198.354 147.038 209.253 147.038 212.566C147.038 215.27 148.841 218.411 153.997 217.418C194.131 204.026 223.041 166.182 223.041 121.56C223.041 65.755 177.812 20.5255 122.007 20.5255Z" fill="white"/>
</svg>
