<svg preserveAspectRatio="none" width="228" height="227" viewBox="0 0 228 227" fill="none" xmlns="http://www.w3.org/2000/svg">
<path d="M113.846 2.02281L9.0176 38.9146L25.5813 176.259L113.958 224.832L202.789 175.602L219.347 38.2619L113.846 2.02281Z" fill="#B3B3B3"/>
<path d="M208.891 46.1996L113.602 13.7039V213.227L193.459 169.03L208.891 46.1996Z" fill="#A6120D"/>
<path d="M20.7783 46.7852L34.9767 169.618L113.601 213.227V13.7003L20.7783 46.7852Z" fill="#DD1B16"/>
<path d="M139.832 119.92L113.602 132.186H85.9555L72.9583 164.691L48.7877 165.14L113.602 20.9482L139.832 119.92ZM137.295 113.744L113.776 67.1806L94.4824 112.942H113.601L137.295 113.744Z" fill="#F2F2F2"/>
<path d="M113.6 20.9482L113.774 67.1806L135.666 112.978H113.648L113.6 132.156L144.044 132.186L158.271 165.144L181.399 165.572L113.6 20.9482Z" fill="#B3B3B3"/>
</svg>
