<svg preserveAspectRatio="none" width="263" height="247" viewBox="0 0 263 247" fill="none" xmlns="http://www.w3.org/2000/svg">
<path d="M104.189 142.086C125.66 142.086 143.065 124.707 143.065 103.27C143.065 81.8333 125.66 64.4551 104.189 64.4551C82.7178 64.4551 65.3121 81.8333 65.3121 103.27C65.3121 124.707 82.7178 142.086 104.189 142.086Z" fill="#4E8EF7"/>
<path d="M183.524 37.4069C183.528 34.8471 182.794 32.3402 181.409 30.186C180.024 28.0318 178.047 26.3212 175.714 25.2587C173.382 24.1963 170.792 23.8268 168.255 24.1945C165.717 24.5622 163.34 25.6516 161.406 27.3323C142.143 12.8607 118.101 6.21946 94.1272 8.74787C70.1535 11.2763 48.0317 22.7862 32.2224 40.9568C16.4131 59.1274 8.09233 82.607 8.93785 106.661C9.78337 130.715 19.7323 153.555 36.7786 170.574C53.8248 187.593 76.7004 197.527 100.793 198.371C124.885 199.215 148.402 190.907 166.601 175.123C184.8 159.339 196.328 137.252 198.861 113.316C201.393 89.3802 194.741 65.376 180.247 46.1436C182.361 43.7228 183.526 40.619 183.524 37.4069ZM104.189 195.15C89.6086 195.162 75.2342 191.715 62.25 185.093C49.2658 178.471 38.0434 168.863 29.5075 157.061C20.9716 145.259 15.3665 131.602 13.154 117.213C10.9415 102.824 12.1849 88.1168 16.7818 74.302C21.3787 60.4873 29.1976 47.9608 39.5941 37.7547C49.9906 27.5486 62.6673 19.9549 76.5795 15.5994C90.4918 11.2439 105.242 10.2511 119.613 12.703C133.985 15.1549 147.568 20.9812 159.243 29.7019C157.418 32.2695 156.563 35.3989 156.828 38.5357C157.094 41.6726 158.462 44.6145 160.692 46.8405C162.921 49.0664 165.868 50.4328 169.01 50.6977C172.151 50.9625 175.286 50.1087 177.857 48.2874C188.072 61.9417 194.282 78.1635 195.793 95.1394C197.303 112.115 194.055 129.176 186.411 144.414C178.767 159.653 167.029 172.468 152.509 181.428C137.989 190.388 121.258 195.139 104.189 195.15Z" fill="#4E8EF7"/>
</svg>
