<svg preserveAspectRatio="none" width="226" height="309" viewBox="0 0 226 309" fill="none" xmlns="http://www.w3.org/2000/svg">
<g clip-path="url(#clip0_19_5)">
<path d="M0.840759 248.379L2.70405 245.77L90.8256 78.5619L91.0117 76.7916L52.1669 3.82476C48.9107 -2.28734 39.7479 -0.741761 38.6806 6.10055L0.840759 248.379Z" fill="#FFC24A"/>
<path d="M1.94048 246.39L3.34914 243.642L90.5483 78.1855L51.7991 4.92198C48.579 -1.12604 40.4008 0.416022 39.3441 7.18637L1.94048 246.39Z" fill="#FFA712"/>
<g filter="url(#filter0_i_19_5)">
<path d="M1.94048 246.39L3.34914 243.642L90.5483 78.1855L51.7991 4.92198C48.579 -1.12604 40.4008 0.416022 39.3441 7.18637L1.94048 246.39Z" fill="black"/>
</g>
<path d="M119.331 131.984L148.254 102.363L119.322 47.1309C116.576 41.9026 108.907 41.8868 106.19 47.1309L90.7317 76.6092V79.1193L119.33 131.984H119.331Z" fill="#F4BD62"/>
<path d="M118.815 130.75L146.934 101.952L118.815 48.4079C116.145 43.3253 109.658 42.7925 107.016 47.8901L91.4769 77.8265L91.0117 79.3572L118.815 130.75V130.75Z" fill="#FFA50E"/>
<g filter="url(#filter1_i_19_5)">
<path d="M118.815 130.75L146.934 101.952L118.815 48.4079C116.145 43.3253 109.658 42.7925 107.016 47.8901L91.4769 77.8265L91.0117 79.3572L118.815 130.75V130.75Z" fill="black"/>
</g>
<path d="M0.840763 248.379L1.68508 247.529L4.75342 246.283L117.514 133.941L118.943 130.052L90.8133 76.4494L0.840763 248.379Z" fill="#F6820C"/>
<path d="M122.943 305.035L224.994 248.121L195.852 68.6417C194.94 63.0264 188.051 60.8067 184.032 64.8326L0.840763 248.379L102.306 305.031C105.46 306.791 109.012 307.716 112.624 307.717C116.236 307.718 119.789 306.795 122.943 305.035Z" fill="#FDE068"/>
<path d="M224.08 247.643L195.159 69.5273C194.255 63.9541 188.525 61.6484 184.536 65.6445L1.97294 248.03L102.325 304.12C105.455 305.867 108.979 306.785 112.564 306.786C116.148 306.787 119.674 305.871 122.804 304.125L224.08 247.642L224.08 247.643Z" fill="#FCCA3F"/>
<path d="M122.942 303.358C119.788 305.117 116.236 306.04 112.624 306.04C109.012 306.039 105.46 305.114 102.306 303.353L1.65785 247.516L0.841619 248.379L102.306 305.031C105.46 306.791 109.012 307.716 112.624 307.717C116.236 307.718 119.788 306.795 122.943 305.035L224.994 248.121L224.744 246.583L122.943 303.359L122.942 303.358Z" fill="#EEAB37"/>
</g>
<defs>
<filter id="filter0_i_19_5" x="1.94048" y="1.14226" width="88.6078" height="245.248" filterUnits="userSpaceOnUse" color-interpolation-filters="sRGB">
<feFlood flood-opacity="0" result="BackgroundImageFix"/>
<feBlend mode="normal" in="SourceGraphic" in2="BackgroundImageFix" result="shape"/>
<feColorMatrix in="SourceAlpha" type="matrix" values="0 0 0 0 0 0 0 0 0 0 0 0 0 0 0 0 0 0 127 0" result="hardAlpha"/>
<feOffset/>
<feGaussianBlur stdDeviation="15.3592"/>
<feComposite in2="hardAlpha" operator="arithmetic" k2="-1" k3="1"/>
<feColorMatrix type="matrix" values="0 0 0 0 0 0 0 0 0 0 0 0 0 0 0 0 0 0 0.06 0"/>
<feBlend mode="normal" in2="shape" result="effect1_innerShadow_19_5"/>
</filter>
<filter id="filter1_i_19_5" x="91.0117" y="38.1776" width="56.8002" height="92.5724" filterUnits="userSpaceOnUse" color-interpolation-filters="sRGB">
<feFlood flood-opacity="0" result="BackgroundImageFix"/>
<feBlend mode="normal" in="SourceGraphic" in2="BackgroundImageFix" result="shape"/>
<feColorMatrix in="SourceAlpha" type="matrix" values="0 0 0 0 0 0 0 0 0 0 0 0 0 0 0 0 0 0 127 0" result="hardAlpha"/>
<feOffset dx="0.87767" dy="-7.89903"/>
<feGaussianBlur stdDeviation="3.07184"/>
<feComposite in2="hardAlpha" operator="arithmetic" k2="-1" k3="1"/>
<feColorMatrix type="matrix" values="0 0 0 0 0 0 0 0 0 0 0 0 0 0 0 0 0 0 0.09 0"/>
<feBlend mode="normal" in2="shape" result="effect1_innerShadow_19_5"/>
</filter>
<clipPath id="clip0_19_5">
<rect width="224.684" height="308.062" fill="white" transform="translate(0.840759)"/>
</clipPath>
</defs>
</svg>
