<svg preserveAspectRatio="none" width="62" height="62" viewBox="0 0 62 62" fill="none" xmlns="http://www.w3.org/2000/svg">
<path d="M15.1745 19.8651L15.1745 16.7992C15.1745 15.501 16.2241 14.4514 17.5154 14.4583L44.3565 14.4514C45.6547 14.4514 46.7043 15.501 46.6974 16.7923L46.6974 43.6402C46.6974 44.9384 45.6477 45.988 44.3565 45.9811L41.2905 45.9811C39.9785 45.9811 38.9219 44.897 38.9496 43.585L39.3432 27.3367L19.4972 47.1827C18.5788 48.1011 17.1011 48.1011 16.1827 47.1827L13.973 44.973C13.0545 44.0545 13.0545 42.5768 13.973 41.6584L33.8189 21.8124L17.5706 22.2061C16.2517 22.2406 15.1676 21.1841 15.1745 19.8651Z" fill="black"/>
</svg>
